<?xml version="1.0" standalone="no"?><!-- Generator: Gravit.io -->
<svg xmlns="http://www.w3.org/2000/svg" xmlns:xlink="http://www.w3.org/1999/xlink"
    style="isolation:isolate" viewBox="40.75 87.111 40.25 35.778" width="40.25" height="35.778">
    <g>
        <path
            d="M 43.731 87.111 L 70.259 87.111 C 71.905 87.111 73.241 88.447 73.241 90.093 L 73.241 90.093 C 73.241 91.738 71.905 93.074 70.259 93.074 L 43.731 93.074 C 42.086 93.074 40.75 91.738 40.75 90.093 L 40.75 90.093 C 40.75 88.447 42.086 87.111 43.731 87.111 Z"
            style="stroke:none;fill:#2E2E2E;stroke-miterlimit:10;" />
        <path
            d="M 43.731 102.019 L 78.019 102.019 C 79.664 102.019 81 103.354 81 105 L 81 105 C 81 106.646 79.664 107.981 78.019 107.981 L 43.731 107.981 C 42.086 107.981 40.75 106.646 40.75 105 L 40.75 105 C 40.75 103.354 42.086 102.019 43.731 102.019 Z"
            style="stroke:none;fill:#2E2E2E;stroke-miterlimit:10;" />
        <path
            d="M 43.731 116.926 L 57.894 116.926 C 59.539 116.926 60.875 118.262 60.875 119.907 L 60.875 119.907 C 60.875 121.553 59.539 122.889 57.894 122.889 L 43.731 122.889 C 42.086 122.889 40.75 121.553 40.75 119.907 L 40.75 119.907 C 40.75 118.262 42.086 116.926 43.731 116.926 Z"
            style="stroke:none;fill:#2E2E2E;stroke-miterlimit:10;" />
    </g>
</svg>