<?xml version="1.0" encoding="UTF-8"?>
<svg xmlns="http://www.w3.org/2000/svg" xmlns:xlink="http://www.w3.org/1999/xlink" viewBox="0 0 64 64" version="1.1">
<g id="surface1">
<path style=" stroke:none;fill-rule:nonzero;fill:#BECDE8;fill-opacity:1;" d="M 13 19 L 51 19 L 48 54 L 45 57 L 19 57 L 16 54 Z "/>
<path style=" stroke:none;fill-rule:nonzero;fill:#CAD8ED;fill-opacity:1;" d="M 25 57 L 18 57 L 15 51 L 13 19 L 22 19 Z "/>
<path style=" stroke:none;fill-rule:nonzero;fill:#AFC4E1;fill-opacity:1;" d="M 50.710938 22 L 51 19 L 13 19 L 13.289063 22 Z "/>
<path style=" stroke:none;fill-rule:nonzero;fill:#AFC4E1;fill-opacity:1;" d="M 38 19 L 37 57 L 45 57 L 48 54 L 51 19 Z "/>
<path style=" stroke:none;fill-rule:nonzero;fill:#A8B7D1;fill-opacity:1;" d="M 53 19 L 11 19 C 9.894531 19 9 18.105469 9 17 L 9 11 C 9 9.894531 9.894531 9 11 9 L 53 9 C 54.105469 9 55 9.894531 55 11 L 55 17 C 55 18.105469 54.105469 19 53 19 Z "/>
<path style=" stroke:none;fill-rule:nonzero;fill:#986CA1;fill-opacity:1;" d="M 19 12 C 18.445313 12 18 12.449219 18 13 L 18 15 C 18 15.550781 18.445313 16 19 16 C 19.554688 16 20 15.550781 20 15 L 20 13 C 20 12.449219 19.554688 12 19 12 Z "/>
<path style=" stroke:none;fill-rule:nonzero;fill:#986CA1;fill-opacity:1;" d="M 14 12 C 13.445313 12 13 12.449219 13 13 L 13 15 C 13 15.550781 13.445313 16 14 16 C 14.554688 16 15 15.550781 15 15 L 15 13 C 15 12.449219 14.554688 12 14 12 Z "/>
<path style=" stroke:none;fill-rule:nonzero;fill:#986CA1;fill-opacity:1;" d="M 24 12 C 23.445313 12 23 12.449219 23 13 L 23 15 C 23 15.550781 23.445313 16 24 16 C 24.554688 16 25 15.550781 25 15 L 25 13 C 25 12.449219 24.554688 12 24 12 Z "/>
<path style=" stroke:none;fill-rule:nonzero;fill:#986CA1;fill-opacity:1;" d="M 29 12 C 28.445313 12 28 12.449219 28 13 L 28 15 C 28 15.550781 28.445313 16 29 16 C 29.554688 16 30 15.550781 30 15 L 30 13 C 30 12.449219 29.554688 12 29 12 Z "/>
<path style=" stroke:none;fill-rule:nonzero;fill:#986CA1;fill-opacity:1;" d="M 35 12 C 34.445313 12 34 12.449219 34 13 L 34 15 C 34 15.550781 34.445313 16 35 16 C 35.554688 16 36 15.550781 36 15 L 36 13 C 36 12.449219 35.554688 12 35 12 Z "/>
<path style=" stroke:none;fill-rule:nonzero;fill:#986CA1;fill-opacity:1;" d="M 40 12 C 39.445313 12 39 12.449219 39 13 L 39 15 C 39 15.550781 39.445313 16 40 16 C 40.554688 16 41 15.550781 41 15 L 41 13 C 41 12.449219 40.554688 12 40 12 Z "/>
<path style=" stroke:none;fill-rule:nonzero;fill:#986CA1;fill-opacity:1;" d="M 45 12 C 44.445313 12 44 12.449219 44 13 L 44 15 C 44 15.550781 44.445313 16 45 16 C 45.554688 16 46 15.550781 46 15 L 46 13 C 46 12.449219 45.554688 12 45 12 Z "/>
<path style=" stroke:none;fill-rule:nonzero;fill:#986CA1;fill-opacity:1;" d="M 50 12 C 49.445313 12 49 12.449219 49 13 L 49 15 C 49 15.550781 49.445313 16 50 16 C 50.554688 16 51 15.550781 51 15 L 51 13 C 51 12.449219 50.554688 12 50 12 Z "/>
<path style=" stroke:none;fill-rule:nonzero;fill:#986CA1;fill-opacity:1;" d="M 53 8 L 41.535156 8 L 38.425781 3.335938 C 37.867188 2.5 36.933594 2 35.929688 2 L 28.070313 2 C 27.066406 2 26.132813 2.5 25.574219 3.335938 L 22.464844 8 L 11 8 C 9.347656 8 8 9.347656 8 11 L 8 17 C 8 18.652344 9.347656 20 11 20 L 11.101563 20 L 14.628906 53.523438 C 14.894531 56.074219 17.035156 58 19.601563 58 L 44.398438 58 C 46.964844 58 49.105469 56.074219 49.371094 53.523438 L 52.898438 20 L 53 20 C 54.652344 20 56 18.652344 56 17 L 56 11 C 56 9.347656 54.652344 8 53 8 Z M 27.238281 4.445313 C 27.425781 4.167969 27.734375 4 28.070313 4 L 35.929688 4 C 36.265625 4 36.574219 4.167969 36.761719 4.445313 L 39.132813 8 L 24.867188 8 Z M 47.382813 53.3125 C 47.222656 54.847656 45.9375 56 44.398438 56 L 19.601563 56 C 18.0625 56 16.777344 54.847656 16.617188 53.3125 L 13.109375 20 L 50.890625 20 Z M 54 17 C 54 17.550781 53.550781 18 53 18 L 12 18 C 11.976563 18 11.960938 18.011719 11.9375 18.011719 C 11.914063 18.011719 11.898438 18 11.875 18 L 11 18 C 10.449219 18 10 17.550781 10 17 L 10 11 C 10 10.449219 10.449219 10 11 10 L 53 10 C 53.550781 10 54 10.449219 54 11 Z "/>
<path style=" stroke:none;fill-rule:nonzero;fill:#986CA1;fill-opacity:1;" d="M 43 52 L 39 52 C 38.445313 52 38 52.449219 38 53 C 38 53.550781 38.445313 54 39 54 L 43 54 C 43.554688 54 44 53.550781 44 53 C 44 52.449219 43.554688 52 43 52 Z "/>
<path style=" stroke:none;fill-rule:nonzero;fill:#986CA1;fill-opacity:1;" d="M 35 52 L 21 52 C 20.445313 52 20 52.449219 20 53 C 20 53.550781 20.445313 54 21 54 L 35 54 C 35.554688 54 36 53.550781 36 53 C 36 52.449219 35.554688 52 35 52 Z "/>
</g>
</svg>
