<?xml version="1.0" encoding="UTF-8"?>
<svg xmlns="http://www.w3.org/2000/svg" xmlns:xlink="http://www.w3.org/1999/xlink" viewBox="0 0 480 480" version="1.1">
<g id="surface1">
<path style=" stroke:none;fill-rule:nonzero;fill:#FEBF10;fill-opacity:1;" d="M 219.46875 177.375 C 217.875 176.25 215.71875 175.3125 213.75 174.84375 C 212.625 174.5625 211.40625 174.28125 210.1875 174.28125 C 209.4375 174.28125 208.96875 174.375 208.78125 174.375 C 207.9375 175.96875 206.34375 176.8125 204.75 177 C 202.875 181.3125 203.34375 187.21875 208.03125 189.375 C 212.15625 191.25 219.46875 192 222.46875 187.78125 C 224.90625 184.3125 222.46875 179.53125 219.46875 177.375 Z "/>
<path style=" stroke:none;fill-rule:nonzero;fill:#117176;fill-opacity:1;" d="M 345.28125 368.4375 C 344.4375 355.03125 343.5 341.71875 342.84375 328.3125 C 342.1875 314.8125 341.53125 301.3125 340.125 287.90625 C 339.46875 281.53125 338.71875 275.15625 338.34375 268.78125 C 337.96875 262.3125 337.78125 255.75 336.28125 249.46875 C 336.28125 249.375 336.28125 249.28125 336.1875 249.1875 C 331.78125 249.1875 327.28125 249.65625 322.875 249.9375 C 312.28125 250.5 301.78125 250.5 291.1875 250.78125 C 269.0625 251.34375 247.03125 252.1875 225 253.3125 C 203.34375 254.4375 181.78125 256.125 160.125 253.40625 C 157.21875 253.03125 153.84375 252.9375 150.5625 252.5625 C 150.46875 253.6875 150.46875 254.71875 150.46875 255.84375 C 150 270.84375 150.1875 285.9375 150.75 300.9375 C 151.3125 315.65625 151.875 330.375 154.03125 345 C 156.09375 358.875 158.4375 372.75 157.40625 386.90625 C 157.03125 391.96875 156.5625 398.53125 160.125 402.65625 C 163.6875 406.78125 170.625 407.71875 175.78125 407.90625 C 189.375 408.28125 202.96875 407.625 216.5625 408.28125 C 231.75 409.03125 246.9375 410.0625 262.21875 410.53125 C 277.40625 411 292.6875 410.4375 307.875 409.5 C 315.75 409.03125 323.53125 408.46875 331.3125 407.8125 C 334.875 407.53125 338.4375 407.15625 342 406.78125 C 343.21875 406.6875 344.25 406.5 345.28125 406.5 C 345.375 406.21875 345.5625 405.9375 345.75 405.75 C 347.625 393.375 346.03125 380.71875 345.28125 368.4375 Z "/>
<path style=" stroke:none;fill-rule:nonzero;fill:#FEBF10;fill-opacity:1;" d="M 162.65625 181.125 C 161.0625 180 158.90625 179.0625 156.9375 178.59375 C 155.8125 178.3125 154.59375 178.03125 153.375 178.03125 C 152.625 178.03125 152.15625 178.125 151.96875 178.125 C 151.125 179.71875 149.53125 180.5625 147.9375 180.75 C 146.0625 185.0625 146.53125 190.96875 151.21875 193.125 C 155.34375 195 162.65625 195.75 165.65625 191.53125 C 168 188.0625 165.5625 183.28125 162.65625 181.125 Z "/>
<path style=" stroke:none;fill-rule:nonzero;fill:#FEBF10;fill-opacity:1;" d="M 342.1875 444.65625 C 337.78125 444.5625 333.375 444.84375 328.96875 445.125 C 329.0625 448.3125 329.34375 455.15625 331.3125 456 C 334.875 457.59375 340.125 455.4375 343.6875 454.6875 C 346.21875 454.21875 348.75 453.9375 351.28125 453.46875 C 352.6875 453.1875 352.40625 453.65625 352.40625 451.96875 C 352.5 449.625 352.6875 447.28125 352.78125 445.03125 C 352.78125 444.9375 352.78125 444.84375 352.78125 444.75 C 349.03125 444.75 345.375 444.65625 342.1875 444.65625 Z "/>
<path style=" stroke:none;fill-rule:nonzero;fill:#D6E7E7;fill-opacity:1;" d="M 348.9375 42.9375 C 336.9375 42.84375 324.84375 43.5 312.84375 43.5 C 297.9375 43.40625 282.65625 44.0625 267.75 42.84375 C 261.375 42.28125 255 41.90625 248.625 42.28125 C 245.90625 42.46875 238.03125 43.03125 235.78125 45.375 C 235.78125 45.65625 235.78125 45.84375 235.78125 46.125 C 235.78125 46.5 235.78125 46.875 235.78125 47.25 C 248.90625 48 261.9375 49.40625 274.96875 49.875 C 288.9375 50.34375 302.90625 50.71875 316.875 50.71875 C 328.96875 50.71875 341.8125 50.4375 353.4375 47.15625 C 355.21875 46.59375 357.28125 46.125 358.96875 45.1875 C 359.15625 45.09375 359.4375 44.90625 359.625 44.8125 C 356.8125 42.9375 351.75 42.9375 348.9375 42.9375 Z "/>
<path style=" stroke:none;fill-rule:nonzero;fill:#FEBF10;fill-opacity:1;" d="M 343.3125 232.40625 C 342.65625 231.65625 342.1875 230.71875 342 229.6875 C 309.84375 229.6875 277.6875 229.96875 245.53125 231.1875 C 212.25 232.40625 178.96875 233.90625 145.6875 234.09375 C 145.6875 235.96875 145.78125 237.75 146.4375 239.34375 C 147.375 241.78125 150.1875 241.96875 152.53125 242.25 C 160.125 243.28125 167.8125 244.03125 175.40625 244.40625 C 194.8125 245.34375 214.21875 243.46875 233.625 242.53125 C 253.875 241.59375 274.125 240.84375 294.375 240.375 C 303.75 240.1875 313.03125 240.1875 322.40625 239.625 C 326.71875 239.34375 331.125 238.78125 335.53125 238.875 C 338.0625 238.96875 340.78125 239.25 343.40625 239.0625 C 343.3125 236.71875 343.40625 234.5625 343.3125 232.40625 Z "/>
<path style=" stroke:none;fill-rule:nonzero;fill:#FEBF10;fill-opacity:1;" d="M 176.4375 451.21875 C 176.34375 449.90625 176.25 448.5 176.25 447.1875 C 168.5625 446.71875 160.875 446.0625 153.375 444.84375 C 153.46875 446.53125 153.5625 448.125 153.9375 449.71875 C 154.125 450.75 154.78125 454.875 155.71875 455.53125 C 156.9375 456.5625 162.28125 455.34375 163.875 455.4375 C 167.53125 455.625 172.21875 456.375 175.6875 455.25 C 175.96875 455.15625 176.15625 455.15625 176.25 455.15625 C 176.25 455.0625 176.25 454.875 176.25 454.6875 C 176.34375 453.5625 176.4375 452.4375 176.4375 451.21875 Z "/>
<path style=" stroke:none;fill-rule:nonzero;fill:#FEBF10;fill-opacity:1;" d="M 274.875 177.375 C 273.28125 176.25 271.125 175.3125 269.15625 174.84375 C 268.03125 174.5625 266.8125 174.28125 265.59375 174.28125 C 264.84375 174.28125 264.375 174.375 264.1875 174.375 C 263.34375 175.96875 261.75 176.8125 260.15625 177 C 258.28125 181.3125 258.75 187.21875 263.4375 189.375 C 267.5625 191.25 274.875 192 277.875 187.78125 C 280.3125 184.3125 277.875 179.53125 274.875 177.375 Z "/>
<path style=" stroke:none;fill-rule:nonzero;fill:#D6E7E7;fill-opacity:1;" d="M 362.71875 54.75 C 360.1875 55.96875 357.46875 56.71875 355.3125 57.1875 C 342.84375 59.90625 330.375 61.03125 317.625 60.9375 C 303.65625 60.84375 289.59375 60.75 275.71875 60.09375 C 262.21875 59.53125 248.90625 58.03125 235.40625 57.375 C 235.21875 71.4375 235.59375 85.40625 234.9375 99.46875 C 234.65625 105.84375 233.90625 114.65625 237.9375 120.09375 C 240.75 123.84375 246 124.5 250.875 125.25 C 252.9375 121.40625 256.6875 118.78125 260.8125 116.71875 C 270.09375 112.03125 282.1875 109.6875 286.59375 99.09375 C 288.375 94.78125 294.5625 95.71875 296.0625 99.65625 C 298.03125 104.8125 300 109.59375 300.5625 114.5625 C 307.21875 111 312.1875 105.375 312.375 96.84375 C 312.5625 90.28125 322.125 89.34375 322.6875 96.09375 C 322.96875 100.5 326.0625 104.4375 327.375 108.5625 C 328.03125 110.53125 328.40625 112.78125 328.59375 115.03125 C 332.0625 112.6875 334.96875 109.3125 337.96875 106.21875 C 340.875 103.21875 346.875 104.4375 346.96875 109.21875 C 347.0625 115.3125 348.5625 121.875 348.46875 128.0625 C 354.65625 127.5 360.09375 125.25 362.8125 118.96875 C 365.53125 112.59375 366.28125 105.28125 366.375 98.4375 C 366.5625 83.625 363.84375 69.28125 362.71875 54.75 Z "/>
<path style=" stroke:none;fill-rule:nonzero;fill:#BCBCBC;fill-opacity:1;" d="M 368.8125 379.3125 C 367.78125 361.78125 367.03125 344.25 366.65625 326.71875 C 365.90625 292.125 366.375 257.625 365.34375 223.03125 C 364.96875 208.6875 366 194.15625 364.40625 179.90625 C 363.28125 169.21875 361.125 157.5 350.25 152.71875 C 339.28125 147.9375 325.6875 149.15625 314.0625 149.625 C 299.0625 150.28125 284.15625 151.59375 269.15625 151.59375 C 242.25 151.78125 215.4375 148.03125 188.53125 147.375 C 166.40625 146.8125 142.40625 147.5625 123.09375 159.375 C 123.09375 170.71875 123.09375 182.0625 123.84375 193.3125 C 124.59375 204.46875 125.90625 215.53125 125.8125 226.78125 C 125.625 250.03125 124.78125 273.1875 125.625 296.53125 C 126.5625 320.25 128.15625 343.875 129.46875 367.5 C 130.125 379.03125 131.53125 390.46875 131.8125 402 C 132 409.21875 129.28125 418.5 132.1875 425.25 C 132.28125 425.4375 132.28125 425.625 132.375 425.71875 C 137.90625 431.625 146.4375 433.3125 154.21875 434.4375 C 165.9375 436.03125 177.65625 437.15625 189.46875 437.4375 C 214.875 437.90625 240.28125 437.71875 265.6875 437.4375 C 278.53125 437.34375 291.28125 437.0625 304.125 436.5 C 315.375 435.9375 326.71875 434.25 337.96875 434.25 C 342.84375 434.25 347.71875 434.4375 352.59375 434.25 C 354.375 431.4375 358.59375 430.125 360.84375 433.5 C 365.15625 432.9375 370.59375 431.625 372.09375 427.5 C 371.625 411.5625 369.75 395.4375 368.8125 379.3125 Z M 308.25 167.90625 C 309.1875 166.125 310.78125 165.28125 312.375 165.1875 C 316.5 156.84375 330.28125 160.59375 336.75 164.625 C 344.8125 169.6875 348.9375 180.46875 343.875 189.09375 C 338.53125 198.1875 324.65625 199.59375 315.9375 194.90625 C 306.09375 189.65625 303.09375 177.65625 308.25 167.90625 Z M 251.34375 171.65625 C 252.28125 169.875 253.875 169.03125 255.46875 168.9375 C 259.59375 160.59375 273.375 164.34375 279.84375 168.375 C 287.90625 173.4375 292.03125 184.21875 286.96875 192.84375 C 281.625 201.9375 267.75 203.34375 259.03125 198.65625 C 249.1875 193.40625 246.1875 181.40625 251.34375 171.65625 Z M 195.9375 171.65625 C 196.875 169.875 198.46875 169.03125 200.0625 168.9375 C 204.1875 160.59375 217.96875 164.34375 224.4375 168.375 C 232.5 173.4375 236.625 184.21875 231.5625 192.84375 C 226.21875 201.9375 212.34375 203.34375 203.625 198.65625 C 193.78125 193.40625 190.78125 181.40625 195.9375 171.65625 Z M 139.03125 175.40625 C 139.96875 173.625 141.5625 172.78125 143.15625 172.6875 C 147.28125 164.34375 161.0625 168.09375 167.53125 172.125 C 175.59375 177.1875 179.71875 187.96875 174.65625 196.59375 C 169.3125 205.6875 155.4375 207.09375 146.71875 202.40625 C 136.875 197.15625 133.875 185.15625 139.03125 175.40625 Z M 356.90625 397.3125 C 356.71875 401.625 357.65625 411.375 353.25 413.90625 C 352.5 414.375 351.75 414.5625 351 414.65625 C 350.90625 414.84375 350.71875 415.03125 350.625 415.21875 C 350.71875 415.125 350.71875 415.03125 350.8125 414.9375 C 349.125 417.84375 345.84375 418.03125 343.5 416.8125 C 337.96875 417.375 332.4375 417.9375 326.90625 418.40625 C 311.8125 419.625 296.625 420.375 281.53125 420.84375 C 266.25 421.3125 250.96875 420.28125 235.78125 419.34375 C 221.0625 418.5 206.15625 417.46875 191.4375 417.84375 C 180 418.125 166.59375 419.53125 156.5625 412.78125 C 146.0625 405.65625 147.28125 393.75 147.46875 382.6875 C 147.65625 368.53125 144.9375 354.65625 143.0625 340.59375 C 141.09375 325.875 140.8125 310.96875 140.34375 296.15625 C 139.875 281.15625 139.6875 266.15625 140.4375 251.15625 C 140.4375 250.3125 140.71875 249.5625 141 249 C 141 249 141 249 140.90625 248.90625 C 135.1875 244.125 135.375 236.71875 135.46875 229.875 C 135.46875 228.5625 135.84375 227.53125 136.5 226.6875 C 137.0625 225 138.46875 223.6875 140.8125 223.6875 C 176.0625 223.6875 211.3125 222 246.5625 220.6875 C 280.5 219.46875 314.4375 219.28125 348.375 219.28125 C 351 219.28125 353.90625 221.0625 353.90625 224.0625 L 353.90625 224.71875 C 353.90625 225.84375 353.625 226.875 353.0625 227.8125 C 353.15625 228 353.15625 228.28125 353.25 228.46875 C 354.1875 233.34375 353.34375 237.9375 353.25 242.8125 C 353.15625 245.0625 352.21875 247.40625 349.78125 248.0625 C 348.75 248.34375 347.71875 248.53125 346.6875 248.71875 C 349.3125 261.75 349.21875 275.53125 350.625 288.65625 C 352.03125 302.8125 352.6875 316.875 353.34375 331.03125 C 354.1875 346.21875 355.21875 361.40625 356.15625 376.59375 C 356.53125 383.625 357.1875 390.46875 356.90625 397.3125 Z "/>
<path style=" stroke:none;fill-rule:nonzero;fill:#EF4823;fill-opacity:1;" d="M 338.15625 120.46875 C 334.5 123.75 330.375 126.5625 325.40625 127.59375 C 322.40625 128.25 318.65625 126.75 318.5625 123.09375 C 318.46875 119.71875 318.375 116.0625 317.625 112.6875 C 312.9375 119.8125 305.25 124.78125 296.0625 127.59375 C 291.65625 128.90625 287.90625 124.6875 289.78125 120.46875 C 290.90625 117.84375 290.71875 115.125 290.0625 112.5 C 285.75 116.8125 280.125 119.71875 274.3125 122.15625 C 270.1875 123.84375 264 125.53125 261 128.90625 C 260.625 129.28125 260.4375 129.65625 260.25 130.03125 C 260.625 131.15625 260.625 132.28125 260.34375 133.3125 C 261 135.1875 262.59375 137.0625 263.71875 138.5625 C 264.375 139.5 264.65625 140.4375 264.65625 141.375 C 282.1875 141.375 299.53125 139.78125 317.0625 139.21875 C 322.21875 139.03125 327.65625 138.9375 333.09375 139.3125 C 333.09375 137.8125 333.75 136.40625 335.25 135.28125 C 339.1875 132.28125 339 126.28125 338.15625 120.46875 Z "/>
<path style=" stroke:none;fill-rule:nonzero;fill:#FEBF10;fill-opacity:1;" d="M 331.78125 173.625 C 330.1875 172.5 328.03125 171.5625 326.0625 171.09375 C 324.9375 170.8125 323.71875 170.53125 322.5 170.53125 C 321.75 170.53125 321.28125 170.625 321.09375 170.625 C 320.25 172.21875 318.65625 173.0625 317.0625 173.25 C 315.1875 177.5625 315.65625 183.46875 320.34375 185.625 C 324.46875 187.5 331.78125 188.25 334.78125 184.03125 C 337.21875 180.5625 334.78125 175.78125 331.78125 173.625 Z "/>
<path style=" stroke:none;fill-rule:nonzero;fill:#000000;fill-opacity:1;" d="M 356.0625 376.78125 C 355.21875 361.59375 354.09375 346.40625 353.25 331.21875 C 352.5 317.0625 351.9375 303 350.53125 288.84375 C 349.21875 275.625 349.21875 261.9375 346.59375 248.90625 C 347.625 248.71875 348.65625 248.53125 349.6875 248.25 C 352.03125 247.59375 353.0625 245.15625 353.15625 243 C 353.25 238.125 354.09375 233.4375 353.15625 228.65625 C 353.0625 228.375 353.0625 228.1875 352.96875 228 C 353.53125 227.15625 353.8125 226.03125 353.8125 224.90625 L 353.8125 224.25 C 353.8125 221.25 350.90625 219.46875 348.28125 219.46875 C 314.34375 219.46875 280.40625 219.65625 246.46875 220.875 C 211.21875 222.1875 176.0625 223.78125 140.71875 223.875 C 138.375 223.875 136.96875 225.1875 136.40625 226.875 C 135.75 227.71875 135.375 228.75 135.375 230.0625 C 135.28125 236.90625 135.1875 244.3125 140.8125 249.09375 C 140.8125 249.09375 140.8125 249.09375 140.90625 249.1875 C 140.625 249.84375 140.4375 250.59375 140.34375 251.34375 C 139.59375 266.34375 139.78125 281.34375 140.25 296.34375 C 140.71875 311.15625 141.09375 326.0625 142.96875 340.78125 C 144.84375 354.75 147.5625 368.625 147.375 382.875 C 147.1875 393.9375 145.96875 405.9375 156.46875 412.96875 C 166.5 419.71875 179.8125 418.3125 191.34375 418.03125 C 206.15625 417.65625 220.96875 418.78125 235.6875 419.53125 C 250.875 420.375 266.25 421.40625 281.4375 421.03125 C 296.625 420.5625 311.71875 419.8125 326.8125 418.59375 C 332.34375 418.125 337.875 417.65625 343.40625 417 C 345.75 418.21875 348.9375 417.9375 350.71875 415.125 C 350.625 415.21875 350.625 415.3125 350.53125 415.40625 C 350.71875 415.21875 350.8125 415.03125 350.90625 414.84375 C 351.65625 414.75 352.40625 414.46875 353.15625 414.09375 C 357.46875 411.5625 356.625 401.8125 356.8125 397.5 C 357.1875 390.46875 356.53125 383.625 356.0625 376.78125 Z M 146.25 239.25 C 145.59375 237.65625 145.5 235.875 145.5 234 C 178.78125 233.90625 212.0625 232.40625 245.34375 231.09375 C 277.5 229.875 309.65625 229.6875 341.8125 229.59375 C 342 230.625 342.46875 231.5625 343.125 232.3125 C 343.21875 234.46875 343.125 236.71875 343.03125 238.875 C 340.40625 239.0625 337.6875 238.78125 335.15625 238.6875 C 330.84375 238.59375 326.4375 239.15625 322.03125 239.4375 C 312.75 240 303.375 240 294 240.1875 C 273.75 240.65625 253.5 241.40625 233.25 242.34375 C 213.84375 243.28125 194.4375 245.0625 175.03125 244.21875 C 167.4375 243.84375 159.65625 243.09375 152.15625 242.0625 C 150 241.875 147.1875 241.78125 146.25 239.25 Z M 345.9375 405.65625 C 345.75 405.9375 345.5625 406.125 345.46875 406.40625 C 344.4375 406.40625 343.40625 406.59375 342.1875 406.6875 C 338.625 407.0625 335.0625 407.4375 331.5 407.71875 C 323.71875 408.375 315.84375 408.9375 308.0625 409.40625 C 292.875 410.25 277.6875 410.90625 262.40625 410.4375 C 247.21875 409.96875 232.03125 408.84375 216.75 408.1875 C 203.15625 407.53125 189.5625 408.1875 175.96875 407.8125 C 170.8125 407.625 163.875 406.78125 160.3125 402.5625 C 156.75 398.4375 157.21875 391.875 157.59375 386.8125 C 158.53125 372.65625 156.28125 358.875 154.21875 344.90625 C 152.0625 330.28125 151.5 315.65625 150.9375 300.84375 C 150.375 285.84375 150.09375 270.75 150.65625 255.75 C 150.65625 254.625 150.75 253.59375 150.75 252.46875 C 154.03125 252.84375 157.40625 252.9375 160.3125 253.3125 C 181.96875 256.03125 203.53125 254.34375 225.1875 253.21875 C 247.21875 252.09375 269.34375 251.25 291.375 250.6875 C 301.96875 250.40625 312.46875 250.40625 323.0625 249.84375 C 327.46875 249.5625 331.96875 249.09375 336.375 249.09375 C 336.375 249.1875 336.375 249.28125 336.46875 249.375 C 337.96875 255.75 338.15625 262.21875 338.53125 268.6875 C 338.90625 275.0625 339.5625 281.4375 340.3125 287.8125 C 341.71875 301.3125 342.46875 314.71875 343.03125 328.21875 C 343.6875 341.625 344.625 354.9375 345.46875 368.34375 C 346.03125 380.71875 347.625 393.375 345.9375 405.65625 Z "/>
<path style=" stroke:none;fill-rule:nonzero;fill:#000000;fill-opacity:1;" d="M 167.53125 172.03125 C 161.15625 168 147.28125 164.25 143.15625 172.59375 C 141.5625 172.6875 140.0625 173.53125 139.03125 175.3125 C 133.875 185.0625 136.875 197.0625 146.625 202.21875 C 155.34375 206.90625 169.21875 205.5 174.5625 196.40625 C 179.625 187.96875 175.59375 177.09375 167.53125 172.03125 Z M 165.65625 191.53125 C 162.65625 195.75 155.34375 195 151.21875 193.125 C 146.53125 190.96875 146.0625 185.15625 147.9375 180.75 C 149.53125 180.5625 151.125 179.8125 151.96875 178.125 C 152.25 178.03125 152.71875 178.03125 153.375 178.03125 C 154.5 178.03125 155.8125 178.40625 156.9375 178.59375 C 158.90625 179.0625 160.96875 180 162.65625 181.125 C 165.5625 183.28125 168 188.0625 165.65625 191.53125 Z "/>
<path style=" stroke:none;fill-rule:nonzero;fill:#000000;fill-opacity:1;" d="M 224.34375 168.28125 C 217.96875 164.25 204.09375 160.5 199.96875 168.84375 C 198.375 168.9375 196.875 169.78125 195.84375 171.5625 C 190.6875 181.3125 193.6875 193.3125 203.4375 198.46875 C 212.15625 203.15625 226.03125 201.75 231.375 192.65625 C 236.53125 184.21875 232.40625 173.34375 224.34375 168.28125 Z M 222.46875 187.78125 C 219.46875 192 212.15625 191.25 208.03125 189.375 C 203.34375 187.21875 202.875 181.40625 204.75 177 C 206.34375 176.8125 207.9375 176.0625 208.78125 174.375 C 209.0625 174.28125 209.53125 174.28125 210.1875 174.28125 C 211.3125 174.28125 212.625 174.65625 213.75 174.84375 C 215.71875 175.3125 217.78125 176.25 219.46875 177.375 C 222.46875 179.53125 224.90625 184.3125 222.46875 187.78125 Z "/>
<path style=" stroke:none;fill-rule:nonzero;fill:#000000;fill-opacity:1;" d="M 279.75 168.28125 C 273.375 164.25 259.5 160.5 255.375 168.84375 C 253.78125 168.9375 252.28125 169.78125 251.25 171.5625 C 246.09375 181.3125 249.09375 193.3125 258.84375 198.46875 C 267.5625 203.15625 281.4375 201.75 286.78125 192.65625 C 291.9375 184.21875 287.8125 173.34375 279.75 168.28125 Z M 277.875 187.78125 C 274.875 192 267.5625 191.25 263.4375 189.375 C 258.75 187.21875 258.28125 181.40625 260.15625 177 C 261.75 176.8125 263.34375 176.0625 264.1875 174.375 C 264.46875 174.28125 264.9375 174.28125 265.59375 174.28125 C 266.71875 174.28125 268.03125 174.65625 269.15625 174.84375 C 271.125 175.3125 273.1875 176.25 274.875 177.375 C 277.875 179.53125 280.3125 184.3125 277.875 187.78125 Z "/>
<path style=" stroke:none;fill-rule:nonzero;fill:#000000;fill-opacity:1;" d="M 336.65625 164.53125 C 330.28125 160.5 316.40625 156.75 312.28125 165.09375 C 310.6875 165.1875 309.1875 166.03125 308.15625 167.8125 C 303 177.5625 306 189.5625 315.75 194.71875 C 324.46875 199.40625 338.34375 198 343.6875 188.90625 C 348.84375 180.46875 344.71875 169.59375 336.65625 164.53125 Z M 334.78125 184.03125 C 331.78125 188.25 324.46875 187.5 320.34375 185.625 C 315.65625 183.46875 315.1875 177.65625 317.0625 173.25 C 318.65625 173.0625 320.25 172.3125 321.09375 170.625 C 321.375 170.53125 321.84375 170.53125 322.5 170.53125 C 323.625 170.53125 324.9375 170.90625 326.0625 171.09375 C 328.03125 171.5625 330.09375 172.5 331.78125 173.625 C 334.78125 175.78125 337.21875 180.5625 334.78125 184.03125 Z "/>
<path style=" stroke:none;fill-rule:nonzero;fill:#000000;fill-opacity:1;" d="M 393.65625 59.53125 C 389.15625 54.9375 382.78125 54.5625 376.875 55.3125 C 375.84375 55.40625 374.625 55.6875 373.40625 56.0625 C 372.9375 51.65625 372.65625 47.71875 372.5625 44.25 C 372.5625 41.71875 371.0625 40.3125 369.28125 39.84375 C 365.0625 33.28125 353.625 32.71875 346.875 32.71875 C 334.6875 32.625 322.40625 33.28125 310.21875 33.28125 C 296.34375 33.28125 282.09375 33.84375 268.3125 32.625 C 261.1875 32.0625 253.96875 31.59375 246.84375 32.15625 C 237.28125 32.8125 224.8125 35.90625 224.8125 47.625 C 224.8125 48.5625 225 49.3125 225.375 49.875 C 225.28125 51.46875 225.28125 53.15625 225.28125 54.75 C 213.375 50.0625 193.875 61.6875 200.90625 75.375 C 204.5625 82.40625 216.75 86.4375 225.375 84.5625 C 225.1875 91.59375 224.53125 98.71875 224.53125 105.75 C 224.4375 113.4375 225.65625 121.96875 231 127.875 C 236.0625 133.5 243.1875 134.0625 250.125 135.46875 C 250.78125 137.4375 251.8125 139.40625 252.9375 141.1875 C 236.90625 140.53125 220.96875 138.9375 204.9375 138 C 174.75 136.21875 140.71875 134.90625 114.65625 152.8125 C 112.21875 154.5 112.03125 157.125 113.0625 159.1875 C 113.0625 170.25 113.15625 181.3125 113.71875 192.375 C 114.375 204.1875 115.78125 215.8125 115.78125 227.625 C 115.6875 251.53125 114.75 275.25 115.6875 299.15625 C 116.625 322.875 118.3125 346.5 119.53125 370.125 C 120.1875 381.5625 121.5 393 121.78125 404.4375 C 121.96875 411.46875 120 419.0625 121.78125 425.90625 C 121.5 427.125 121.6875 428.4375 122.625 429.84375 C 127.78125 436.78125 135.09375 440.53125 143.0625 442.6875 C 143.15625 449.8125 144 457.78125 148.875 463.21875 C 152.53125 467.34375 159.9375 465.5625 164.71875 465.65625 C 170.625 465.84375 177.375 466.6875 182.53125 463.3125 C 187.5 460.125 187.03125 453.09375 186.65625 447.46875 C 213.28125 448.5 240.09375 447.75 266.625 447.5625 C 280.6875 447.46875 294.65625 447.1875 308.71875 446.4375 C 312.09375 446.25 315.375 445.96875 318.75 445.6875 C 319.03125 451.875 320.15625 459.46875 324.9375 463.6875 C 330.75 468.9375 339.9375 465.46875 346.5 464.34375 C 352.875 463.21875 360.5625 462.9375 362.25 455.34375 C 363.09375 451.6875 362.90625 447.65625 363.09375 443.90625 C 363.09375 443.8125 363.09375 443.625 363.09375 443.53125 C 371.625 442.125 379.21875 438.5625 382.21875 429.9375 C 382.3125 429.75 382.3125 429.5625 382.40625 429.375 C 382.40625 429.28125 382.5 429.1875 382.5 429.09375 C 382.875 427.96875 382.78125 427.03125 382.5 426.1875 C 381.9375 412.6875 380.34375 399.09375 379.5 385.59375 C 378.5625 370.5 377.8125 355.40625 377.34375 340.21875 C 376.3125 309.9375 376.96875 279.5625 376.40625 249.28125 C 376.125 234.46875 375.46875 219.65625 375.5625 204.75 C 375.65625 190.875 375.75 176.625 371.90625 163.125 C 367.78125 148.875 356.8125 142.78125 344.34375 140.34375 C 344.90625 139.59375 345.46875 138.9375 345.84375 138.1875 C 345.84375 138.1875 345.9375 138.1875 345.9375 138.1875 C 374.625 137.71875 378.09375 112.125 376.5 86.15625 C 382.5 85.21875 388.875 83.25 393.46875 79.21875 C 399.9375 73.78125 399.46875 65.53125 393.65625 59.53125 Z M 225.1875 73.40625 C 221.625 76.21875 214.21875 73.6875 210.9375 71.25 C 208.96875 69.75 209.15625 69.375 210.65625 67.59375 C 212.90625 64.96875 217.96875 62.625 221.34375 64.21875 C 222.75 64.875 224.0625 64.875 225.09375 64.5 C 225.09375 67.5 225.1875 70.40625 225.1875 73.40625 C 225.28125 73.40625 225.1875 73.40625 225.1875 73.40625 Z M 235.6875 45.28125 C 237.9375 42.9375 245.90625 42.375 248.53125 42.1875 C 254.90625 41.71875 261.28125 42.1875 267.65625 42.75 C 282.5625 43.96875 297.84375 43.40625 312.75 43.40625 C 324.84375 43.40625 336.84375 42.84375 348.84375 42.84375 C 351.65625 42.84375 356.71875 42.84375 359.53125 44.71875 C 359.25 44.8125 359.0625 45 358.875 45.09375 C 357.1875 46.03125 355.21875 46.59375 353.34375 47.0625 C 341.71875 50.34375 328.875 50.625 316.78125 50.625 C 302.8125 50.625 288.75 50.34375 274.875 49.78125 C 261.75 49.3125 248.71875 47.8125 235.6875 47.15625 C 235.6875 46.78125 235.6875 46.40625 235.6875 46.03125 C 235.6875 45.75 235.6875 45.5625 235.6875 45.28125 Z M 176.15625 454.875 C 176.15625 455.0625 176.15625 455.25 176.15625 455.34375 C 176.0625 455.34375 175.875 455.34375 175.59375 455.4375 C 172.125 456.5625 167.4375 455.71875 163.78125 455.625 C 162.09375 455.53125 156.84375 456.65625 155.625 455.71875 C 154.78125 454.96875 154.125 450.9375 153.84375 449.90625 C 153.46875 448.3125 153.375 446.625 153.28125 445.03125 C 160.875 446.25 168.5625 446.90625 176.15625 447.375 C 176.25 448.6875 176.34375 450.09375 176.34375 451.40625 C 176.4375 452.4375 176.34375 453.5625 176.15625 454.875 Z M 352.6875 445.03125 C 352.59375 447.375 352.40625 449.71875 352.3125 451.96875 C 352.21875 453.65625 352.5 453.1875 351.1875 453.46875 C 348.65625 453.9375 346.125 454.21875 343.59375 454.6875 C 340.03125 455.4375 334.78125 457.59375 331.21875 456 C 329.25 455.15625 328.96875 448.3125 328.875 445.125 C 333.28125 444.84375 337.6875 444.5625 342.09375 444.65625 C 345.28125 444.65625 348.9375 444.75 352.6875 444.65625 C 352.78125 444.75 352.6875 444.9375 352.6875 445.03125 Z M 350.25 152.71875 C 361.21875 157.5 363.28125 169.21875 364.40625 179.90625 C 365.90625 194.25 364.875 208.6875 365.34375 223.03125 C 366.375 257.625 365.90625 292.125 366.65625 326.71875 C 367.03125 344.25 367.78125 361.78125 368.8125 379.3125 C 369.75 395.4375 371.625 411.5625 372.28125 427.59375 C 370.78125 431.71875 365.25 433.03125 361.03125 433.59375 C 358.78125 430.21875 354.46875 431.4375 352.78125 434.34375 C 347.90625 434.53125 343.03125 434.34375 338.15625 434.34375 C 326.90625 434.34375 315.5625 436.03125 304.3125 436.59375 C 291.46875 437.15625 278.71875 437.4375 265.875 437.53125 C 240.46875 437.71875 215.0625 438 189.65625 437.53125 C 177.84375 437.34375 166.125 436.125 154.40625 434.53125 C 146.625 433.5 138 431.71875 132.5625 425.8125 C 132.46875 425.625 132.46875 425.53125 132.375 425.34375 C 129.46875 418.59375 132.09375 409.3125 132 402.09375 C 131.71875 390.5625 130.3125 379.03125 129.65625 367.59375 C 128.34375 343.96875 126.75 320.25 125.8125 296.625 C 124.875 273.28125 125.8125 250.21875 126 226.875 C 126.09375 215.625 124.78125 204.5625 124.03125 193.40625 C 123.28125 182.15625 123.28125 170.8125 123.28125 159.46875 C 142.59375 147.65625 166.59375 146.8125 188.71875 147.46875 C 215.625 148.21875 242.4375 151.875 269.34375 151.6875 C 284.34375 151.59375 299.25 150.375 314.25 149.71875 C 325.78125 149.15625 339.375 147.9375 350.25 152.71875 Z M 295.96875 127.59375 C 305.15625 124.875 312.84375 119.90625 317.53125 112.6875 C 318.28125 116.0625 318.375 119.625 318.46875 123.09375 C 318.5625 126.75 322.3125 128.25 325.3125 127.59375 C 330.28125 126.5625 334.40625 123.75 338.0625 120.46875 C 338.90625 126.28125 339.1875 132.375 335.0625 135.375 C 333.5625 136.5 332.90625 137.90625 332.90625 139.40625 C 327.46875 139.125 321.9375 139.21875 316.875 139.3125 C 299.34375 139.875 282 141.46875 264.46875 141.46875 C 264.46875 140.53125 264.1875 139.59375 263.53125 138.65625 C 262.40625 137.0625 260.90625 135.28125 260.15625 133.40625 C 260.4375 132.375 260.4375 131.15625 260.0625 130.125 C 260.25 129.75 260.4375 129.375 260.8125 129 C 263.8125 125.53125 270 123.9375 274.125 122.25 C 279.9375 119.8125 285.5625 116.90625 289.875 112.59375 C 290.625 115.21875 290.8125 117.9375 289.59375 120.5625 C 287.90625 124.59375 291.5625 128.90625 295.96875 127.59375 Z M 366.28125 98.34375 C 366.1875 105.28125 365.4375 112.5 362.71875 118.875 C 360 125.25 354.65625 127.40625 348.375 127.96875 C 348.46875 121.875 347.0625 115.21875 346.875 109.125 C 346.78125 104.34375 340.78125 103.125 337.875 106.125 C 334.875 109.21875 331.96875 112.5 328.5 114.9375 C 328.3125 112.6875 327.9375 110.4375 327.28125 108.46875 C 325.875 104.34375 322.875 100.40625 322.59375 96 C 322.125 89.25 312.46875 90.28125 312.28125 96.75 C 312.09375 105.28125 307.125 110.90625 300.46875 114.46875 C 300 109.5 297.9375 104.8125 295.96875 99.5625 C 294.46875 95.625 288.28125 94.6875 286.5 99 C 282.09375 109.59375 270 111.9375 260.71875 116.625 C 256.6875 118.6875 252.84375 121.3125 250.78125 125.15625 C 245.90625 124.5 240.5625 123.75 237.84375 120 C 233.8125 114.5625 234.5625 105.75 234.84375 99.375 C 235.5 85.3125 235.125 71.34375 235.3125 57.28125 C 248.71875 57.9375 262.125 59.4375 275.625 60 C 289.59375 60.5625 303.5625 60.75 317.53125 60.84375 C 330.28125 60.9375 342.75 59.8125 355.21875 57.09375 C 357.375 56.625 360.09375 55.78125 362.625 54.65625 C 363.84375 69.28125 366.5625 83.625 366.28125 98.34375 Z M 375.65625 76.125 C 375.375 72.9375 375 69.84375 374.625 66.84375 C 375 66.5625 375.375 66.28125 375.75 65.90625 C 375.84375 65.90625 375.9375 65.90625 376.03125 65.8125 C 377.4375 65.53125 378.84375 65.4375 380.25 65.34375 C 383.0625 65.15625 384.375 65.25 386.90625 67.3125 C 392.0625 71.71875 380.0625 75.1875 375.65625 76.125 Z "/>
</g>
</svg>
