<?xml version="1.0" encoding="UTF-8"?>
<svg xmlns="http://www.w3.org/2000/svg" xmlns:xlink="http://www.w3.org/1999/xlink" viewBox="0 0 64 64" version="1.1">
<g id="surface1">
<path style=" stroke:none;fill-rule:nonzero;fill:#72CAAF;fill-opacity:1;" d="M 58 13 L 24 47 L 8 31 L 4 35 L 24 55 L 62 17 Z "/>
<path style=" stroke:none;fill-rule:nonzero;fill:#97E0BB;fill-opacity:1;" d="M 24 50.078125 C 23.335938 50.082031 22.699219 49.820313 22.230469 49.351563 L 5.941406 33.058594 L 8.058594 30.941406 L 24 46.878906 L 57.941406 12.941406 L 60.058594 15.058594 L 25.769531 49.351563 C 25.300781 49.820313 24.664063 50.082031 24 50.078125 Z "/>
<path style=" stroke:none;fill-rule:nonzero;fill:#8D6C9F;fill-opacity:1;" d="M 62.710938 16.289063 L 58.710938 12.289063 C 58.320313 11.902344 57.691406 11.902344 57.300781 12.289063 L 24 45.589844 L 8.710938 30.289063 C 8.320313 29.902344 7.691406 29.902344 7.300781 30.289063 L 3.300781 34.289063 C 2.914063 34.679688 2.914063 35.308594 3.300781 35.699219 L 23.300781 55.699219 C 23.691406 56.085938 24.320313 56.085938 24.710938 55.699219 L 62.710938 17.699219 C 63.097656 17.308594 63.097656 16.679688 62.710938 16.289063 Z M 24 53.589844 L 5.410156 35 L 8 32.410156 L 23.289063 47.710938 C 23.679688 48.097656 24.308594 48.097656 24.699219 47.710938 L 58 14.410156 L 60.589844 17 Z "/>
<path style=" stroke:none;fill-rule:nonzero;fill:#8D6C9F;fill-opacity:1;" d="M 23.929688 38.488281 C 24.328125 38.828125 24.917969 38.808594 25.289063 38.4375 C 25.65625 38.066406 25.679688 37.476563 25.339844 37.078125 L 23.929688 35.671875 C 23.535156 35.332031 22.941406 35.351563 22.574219 35.722656 C 22.203125 36.09375 22.179688 36.683594 22.519531 37.078125 Z "/>
<path style=" stroke:none;fill-rule:nonzero;fill:#8D6C9F;fill-opacity:1;" d="M 27.460938 34.949219 C 27.855469 35.289063 28.449219 35.265625 28.816406 34.898438 C 29.1875 34.527344 29.210938 33.9375 28.871094 33.539063 L 27.460938 32.128906 C 27.0625 31.789063 26.472656 31.8125 26.101563 32.183594 C 25.734375 32.550781 25.710938 33.144531 26.050781 33.539063 Z "/>
<path style=" stroke:none;fill-rule:nonzero;fill:#8D6C9F;fill-opacity:1;" d="M 31 31.410156 C 31.398438 31.75 31.988281 31.726563 32.359375 31.359375 C 32.726563 30.988281 32.75 30.398438 32.410156 30 L 31 28.589844 C 30.601563 28.25 30.011719 28.273438 29.640625 28.640625 C 29.273438 29.011719 29.25 29.601563 29.589844 30 Z "/>
<path style=" stroke:none;fill-rule:nonzero;fill:#8D6C9F;fill-opacity:1;" d="M 34.539063 27.878906 C 34.9375 28.21875 35.527344 28.195313 35.898438 27.828125 C 36.265625 27.457031 36.289063 26.867188 35.949219 26.46875 L 34.539063 25.058594 C 34.144531 24.71875 33.550781 24.742188 33.183594 25.113281 C 32.8125 25.480469 32.789063 26.074219 33.128906 26.46875 Z "/>
<path style=" stroke:none;fill-rule:nonzero;fill:#8D6C9F;fill-opacity:1;" d="M 38.070313 24.339844 C 38.464844 24.679688 39.058594 24.65625 39.425781 24.289063 C 39.796875 23.917969 39.820313 23.328125 39.480469 22.929688 L 38.070313 21.519531 C 37.671875 21.179688 37.082031 21.203125 36.710938 21.574219 C 36.34375 21.941406 36.320313 22.535156 36.660156 22.929688 Z "/>
<path style=" stroke:none;fill-rule:nonzero;fill:#8D6C9F;fill-opacity:1;" d="M 41.609375 20.808594 C 42.011719 21.121094 42.582031 21.082031 42.9375 20.71875 C 43.292969 20.355469 43.320313 19.785156 43 19.390625 L 41.609375 18 C 41.214844 17.660156 40.621094 17.683594 40.253906 18.050781 C 39.882813 18.421875 39.859375 19.011719 40.199219 19.410156 Z "/>
<path style=" stroke:none;fill-rule:nonzero;fill:#8D6C9F;fill-opacity:1;" d="M 45.140625 17.269531 C 45.53125 17.664063 46.164063 17.664063 46.554688 17.273438 C 46.945313 16.886719 46.949219 16.253906 46.558594 15.859375 L 45.148438 14.441406 C 44.761719 14.046875 44.128906 14.046875 43.734375 14.433594 C 43.34375 14.824219 43.339844 15.457031 43.730469 15.851563 Z "/>
<path style=" stroke:none;fill-rule:nonzero;fill:#8D6C9F;fill-opacity:1;" d="M 48.679688 13.738281 C 49.078125 14.078125 49.667969 14.058594 50.039063 13.6875 C 50.40625 13.316406 50.429688 12.726563 50.089844 12.328125 L 48.679688 10.921875 C 48.285156 10.582031 47.691406 10.601563 47.324219 10.972656 C 46.953125 11.34375 46.929688 11.933594 47.269531 12.328125 Z "/>
<path style=" stroke:none;fill-rule:nonzero;fill:#8D6C9F;fill-opacity:1;" d="M 52.140625 10.269531 C 52.53125 10.664063 53.164063 10.664063 53.554688 10.273438 C 53.945313 9.886719 53.949219 9.253906 53.558594 8.859375 L 52.140625 7.441406 C 51.75 7.046875 51.117188 7.046875 50.726563 7.433594 C 50.332031 7.824219 50.332031 8.457031 50.71875 8.851563 Z "/>
</g>
</svg>
