<?xml version="1.0" encoding="UTF-8"?>
<svg xmlns="http://www.w3.org/2000/svg" xmlns:xlink="http://www.w3.org/1999/xlink" viewBox="0 0 64 64" version="1.1">
<g id="surface1">
<path style=" stroke:none;fill-rule:nonzero;fill:#963852;fill-opacity:1;" d="M 7.5 54.898438 L 31.5 63.398438 C 31.550781 63.398438 31.601563 63.449219 31.648438 63.449219 C 31.699219 63.449219 31.699219 63.449219 31.75 63.449219 C 31.800781 63.449219 31.851563 63.449219 31.949219 63.449219 C 31.949219 63.449219 32 63.449219 32 63.449219 C 32.101563 63.449219 32.148438 63.449219 32.25 63.449219 C 32.25 63.449219 32.300781 63.449219 32.300781 63.449219 C 32.351563 63.449219 32.398438 63.398438 32.449219 63.398438 L 56.449219 54.898438 C 57.050781 54.699219 57.449219 54.101563 57.449219 53.5 L 57.449219 36.699219 L 62.449219 34.949219 C 62.851563 34.800781 63.199219 34.449219 63.351563 34.050781 C 63.5 33.648438 63.449219 33.148438 63.199219 32.75 L 57.199219 22.75 C 57.199219 22.75 57.199219 22.75 57.199219 22.699219 C 57.199219 22.648438 57.148438 22.648438 57.148438 22.601563 C 57.148438 22.601563 57.148438 22.601563 57.148438 22.550781 C 57.148438 22.5 57.101563 22.5 57.101563 22.449219 C 57.101563 22.449219 57.050781 22.398438 57.050781 22.398438 C 57.050781 22.398438 57.050781 22.398438 57 22.351563 C 57 22.351563 57 22.351563 56.949219 22.351563 C 56.898438 22.351563 56.898438 22.300781 56.851563 22.300781 C 56.851563 22.300781 56.800781 22.25 56.800781 22.25 C 56.800781 22.25 56.800781 22.25 56.75 22.25 C 56.75 22.25 56.699219 22.25 56.699219 22.25 C 56.648438 22.25 56.648438 22.199219 56.601563 22.199219 C 56.550781 22.199219 56.550781 22.199219 56.5 22.148438 C 56.5 22.148438 56.5 22.148438 56.449219 22.148438 L 32.449219 13.648438 C 32.351563 13.601563 32.25 13.601563 32.148438 13.601563 C 32.148438 13.601563 32.101563 13.601563 32.101563 13.601563 C 32 13.601563 31.949219 13.601563 31.851563 13.601563 C 31.800781 13.601563 31.800781 13.601563 31.75 13.601563 C 31.648438 13.601563 31.550781 13.648438 31.449219 13.648438 L 7.449219 22.148438 C 7.449219 22.148438 7.398438 22.148438 7.398438 22.199219 C 7.351563 22.25 7.25 22.25 7.199219 22.300781 C 7.101563 22.351563 7 22.449219 6.898438 22.550781 C 6.898438 22.550781 6.851563 22.601563 6.851563 22.601563 C 6.800781 22.648438 6.800781 22.699219 6.75 22.699219 C 6.75 22.699219 6.75 22.699219 6.699219 22.75 L 0.699219 32.75 C 0.5 33.101563 0.449219 33.601563 0.601563 34 C 0.75 34.398438 1.101563 34.75 1.5 34.898438 L 6.5 36.648438 L 6.5 53.5 C 6.5 54.148438 6.898438 54.699219 7.5 54.898438 Z M 54.5 52.449219 L 33.5 59.898438 L 33.5 47.851563 C 33.5 47 32.851563 46.351563 32 46.351563 C 31.148438 46.351563 30.5 47 30.5 47.851563 L 30.5 59.898438 L 9.5 52.449219 L 9.5 37.75 L 25.5 43.398438 C 25.648438 43.449219 25.851563 43.5 26 43.5 C 26.5 43.5 27 43.25 27.300781 42.75 L 32 34.898438 L 36.699219 42.75 C 37 43.25 37.5 43.5 38 43.5 C 38.148438 43.5 38.351563 43.449219 38.5 43.398438 L 54.5 37.75 Z M 33.5 17.101563 L 51.5 23.5 L 33.5 29.898438 Z M 38.648438 40.199219 L 34.199219 32.800781 L 55.300781 25.300781 L 59.75 32.699219 Z M 8.648438 25.300781 L 29.75 32.800781 L 25.300781 40.199219 L 4.199219 32.699219 Z "/>
</g>
</svg>
