<?xml version="1.0" encoding="UTF-8"?>
<svg xmlns="http://www.w3.org/2000/svg" xmlns:xlink="http://www.w3.org/1999/xlink" viewBox="0 0 512 512" version="1.1">
<g id="surface1">
<path style=" stroke:none;fill-rule:nonzero;fill:#FAEFDE;fill-opacity:1;" d="M 464 216 L 461.28125 197.039063 C 457.671875 172.453125 450.503906 148.523438 440 126 L 408 56 L 328 56 L 304 108 L 304 216.480469 L 464 216 "/>
<path style=" stroke:none;fill-rule:nonzero;fill:#85CBF8;fill-opacity:1;" d="M 177.121094 214.878906 L 57.761719 216 L 118 155.761719 Z "/>
<path style=" stroke:none;fill-rule:nonzero;fill:#72CAAF;fill-opacity:1;" d="M 302.238281 214.238281 L 113.761719 216 L 208.878906 120.878906 Z "/>
<path style=" stroke:none;fill-rule:nonzero;fill:#ED7899;fill-opacity:1;" d="M 401.601563 272.878906 C 398 276.394531 393.527344 278.878906 388.640625 280.078125 C 374.277344 283.777344 363.058594 294.996094 359.359375 309.359375 C 358.160156 314.246094 355.675781 318.71875 352.160156 322.320313 C 332.800781 341.679688 252.320313 333.761719 213.039063 294.480469 C 192.71875 274.160156 173.921875 228.480469 209.921875 192.480469 C 218.210938 184.054688 229.320313 178.984375 241.121094 178.238281 C 249.878906 177.558594 256.835938 170.597656 257.519531 161.839844 C 258.347656 150.035156 263.503906 138.953125 272 130.71875 C 308 94.71875 353.679688 113.519531 374 133.839844 C 413.039063 173.039063 420.960938 253.519531 401.601563 272.878906 Z "/>
<path style=" stroke:none;fill-rule:nonzero;fill:#C2CDE7;fill-opacity:1;" d="M 442.480469 488 L 69.519531 488 C 61.621094 488.109375 54.824219 482.433594 53.519531 474.640625 L 24 296 C 15.164063 296 8 288.835938 8 280 L 8 232 C 8 223.164063 15.164063 216 24 216 L 488 216 C 496.835938 216 504 223.164063 504 232 L 504 280 C 504 288.835938 496.835938 296 488 296 L 458.238281 474.640625 C 456.953125 482.34375 450.289063 487.988281 442.480469 488 Z "/>
<path style=" stroke:none;fill-rule:nonzero;fill:#ACB7D0;fill-opacity:1;" d="M 456 488 L 56 488 L 52.960938 475.921875 C 51.75 471.136719 52.816406 466.058594 55.851563 462.167969 C 58.882813 458.273438 63.542969 455.996094 68.480469 456 L 443.519531 456 C 448.457031 455.996094 453.117188 458.273438 456.148438 462.167969 C 459.183594 466.058594 460.25 471.136719 459.039063 475.921875 Z "/>
<path style=" stroke:none;fill-rule:nonzero;fill:#ACB7D0;fill-opacity:1;" d="M 460.320313 336 L 51.679688 336 C 40.25 335.996094 30.40625 327.929688 28.160156 316.71875 L 24 296 L 488 296 L 483.839844 316.71875 C 481.59375 327.929688 471.75 335.996094 460.320313 336 Z "/>
<path style=" stroke:none;fill-rule:nonzero;fill:#F9E3AE;fill-opacity:1;" d="M 312 24 L 424 24 L 424 56 L 312 56 Z "/>
<path style=" stroke:none;fill-rule:nonzero;fill:#F9E3AE;fill-opacity:1;" d="M 248.929688 121.101563 C 234.898438 96.804688 211.277344 84.179688 196.160156 92.90625 C 181.046875 101.632813 180.167969 128.402344 194.195313 152.703125 C 208.222656 177 231.847656 189.621094 246.960938 180.894531 C 262.074219 172.167969 262.957031 145.398438 248.929688 121.101563 Z "/>
<path style=" stroke:none;fill-rule:nonzero;fill:#D6DFF2;fill-opacity:1;" d="M 32 216 L 480 216 C 493.253906 216 504 226.746094 504 240 L 504 272 C 504 285.253906 493.253906 296 480 296 L 32 296 C 18.746094 296 8 285.253906 8 272 L 8 240 C 8 226.746094 18.746094 216 32 216 Z "/>
<path style=" stroke:none;fill-rule:nonzero;fill:#E2E9F7;fill-opacity:1;" d="M 28 216 L 484 216 C 490.628906 216 496 221.371094 496 228 C 496 234.628906 490.628906 240 484 240 L 28 240 C 21.371094 240 16 234.628906 16 228 C 16 221.371094 21.371094 216 28 216 Z "/>
<path style=" stroke:none;fill-rule:nonzero;fill:#8D6C9F;fill-opacity:1;" d="M 488 208 L 470.960938 208 L 469.199219 195.921875 C 465.566406 170.570313 458.261719 145.886719 447.519531 122.640625 L 419.199219 61.121094 C 428.839844 55.917969 433.734375 44.847656 431.09375 34.21875 C 428.457031 23.585938 418.953125 16.089844 408 16 L 328 16 C 317.046875 16.089844 307.542969 23.585938 304.90625 34.21875 C 302.265625 44.847656 307.160156 55.917969 316.800781 61.121094 L 297.679688 102.558594 C 284.882813 105.660156 272.957031 111.625 262.800781 120 C 262.035156 118.132813 261.152344 116.316406 260.160156 114.558594 C 243.679688 86.078125 200.878906 81.519531 199.039063 81.359375 C 195.660156 81.050781 192.453125 82.914063 191.039063 86 C 184.507813 101.121094 181.605469 117.558594 182.558594 134 L 144 172.71875 L 123.28125 152 C 120.277344 148.996094 116.207031 147.308594 111.960938 147.308594 C 107.714844 147.308594 103.640625 148.996094 100.640625 152 L 44.640625 208 L 24 208 C 10.746094 208 0 218.746094 0 232 L 0 280 C 0.00390625 290.570313 6.921875 299.894531 17.039063 302.960938 L 45.839844 475.921875 C 47.777344 487.625 57.976563 496.160156 69.839844 496 L 442.480469 496 C 454.34375 496.160156 464.542969 487.625 466.480469 475.921875 L 495.28125 302.960938 C 505.269531 299.78125 512.039063 290.484375 512 280 L 512 232 C 512 218.746094 501.253906 208 488 208 Z M 453.359375 198.238281 L 454.800781 208 L 418.480469 208 C 413.574219 177.960938 400.039063 150 379.519531 127.519531 C 363.25 109.976563 340.40625 100.003906 316.480469 100 L 333.121094 64 L 402.878906 64 L 433.039063 129.359375 C 443.121094 151.210938 449.964844 174.414063 453.359375 198.238281 Z M 328 32 L 408 32 C 412.417969 32 416 35.582031 416 40 C 416 44.417969 412.417969 48 408 48 L 328 48 C 323.582031 48 320 44.417969 320 40 C 320 35.582031 323.582031 32 328 32 Z M 258.238281 184.398438 C 264.429688 169.988281 267.378906 154.394531 266.878906 138.71875 C 267.761719 137.679688 268.558594 136.71875 269.519531 135.761719 C 282.777344 122.683594 300.816406 115.613281 319.429688 116.203125 C 338.042969 116.792969 355.597656 124.988281 368 138.878906 C 385.578125 158.304688 397.40625 182.238281 402.160156 208 L 198.960938 208 C 201.316406 204.601563 203.996094 201.441406 206.960938 198.558594 C 214.078125 191.429688 223.363281 186.867188 233.359375 185.601563 C 238.941406 187.195313 244.636719 188.34375 250.398438 189.039063 L 251.199219 189.039063 C 254.238281 188.957031 256.964844 187.15625 258.238281 184.398438 Z M 203.28125 98.558594 C 214.160156 100.640625 236.960938 106.558594 246.160156 122.558594 C 255.359375 138.558594 249.359375 161.441406 246.160156 171.921875 C 235.28125 169.839844 212.480469 163.921875 203.28125 147.921875 C 194.078125 131.921875 200 109.039063 203.28125 98.558594 Z M 189.039063 155.921875 C 194.292969 164.355469 201.65625 171.277344 210.398438 176 C 204.859375 178.867188 199.785156 182.5625 195.359375 186.960938 C 189.359375 193.15625 184.363281 200.257813 180.558594 208 L 131.28125 208 L 187.28125 152 C 187.761719 153.359375 188.320313 154.640625 189.039063 155.921875 Z M 112 163.28125 L 132.71875 184 L 108.71875 208 L 67.28125 208 Z M 496 280 C 496 284.417969 492.417969 288 488 288 C 484.035156 287.949219 480.632813 290.808594 480 294.71875 L 450.320313 473.359375 C 449.652344 477.242188 446.257813 480.058594 442.320313 480 L 69.519531 480 C 65.582031 480.058594 62.1875 477.242188 61.519531 473.359375 L 33.441406 304 L 392 304 C 396.417969 304 400 300.417969 400 296 C 400 291.582031 396.417969 288 392 288 L 24 288 C 19.582031 288 16 284.417969 16 280 L 16 232 C 16 227.582031 19.582031 224 24 224 L 488 224 C 492.417969 224 496 227.582031 496 232 Z "/>
<path style=" stroke:none;fill-rule:nonzero;fill:#8D6C9F;fill-opacity:1;" d="M 80 328 C 80 323.582031 76.417969 320 72 320 C 67.582031 320 64 323.582031 64 328 L 64 344 C 64 348.417969 67.582031 352 72 352 C 76.417969 352 80 348.417969 80 344 Z "/>
<path style=" stroke:none;fill-rule:nonzero;fill:#8D6C9F;fill-opacity:1;" d="M 112 352 C 116.417969 352 120 348.417969 120 344 L 120 328 C 120 323.582031 116.417969 320 112 320 C 107.582031 320 104 323.582031 104 328 L 104 344 C 104 348.417969 107.582031 352 112 352 Z "/>
<path style=" stroke:none;fill-rule:nonzero;fill:#8D6C9F;fill-opacity:1;" d="M 152 352 C 156.417969 352 160 348.417969 160 344 L 160 328 C 160 323.582031 156.417969 320 152 320 C 147.582031 320 144 323.582031 144 328 L 144 344 C 144 348.417969 147.582031 352 152 352 Z "/>
<path style=" stroke:none;fill-rule:nonzero;fill:#8D6C9F;fill-opacity:1;" d="M 192 352 C 196.417969 352 200 348.417969 200 344 L 200 328 C 200 323.582031 196.417969 320 192 320 C 187.582031 320 184 323.582031 184 328 L 184 344 C 184 348.417969 187.582031 352 192 352 Z "/>
<path style=" stroke:none;fill-rule:nonzero;fill:#8D6C9F;fill-opacity:1;" d="M 232 352 C 236.417969 352 240 348.417969 240 344 L 240 328 C 240 323.582031 236.417969 320 232 320 C 227.582031 320 224 323.582031 224 328 L 224 344 C 224 348.417969 227.582031 352 232 352 Z "/>
<path style=" stroke:none;fill-rule:nonzero;fill:#8D6C9F;fill-opacity:1;" d="M 280 352 C 284.417969 352 288 348.417969 288 344 L 288 328 C 288 323.582031 284.417969 320 280 320 C 275.582031 320 272 323.582031 272 328 L 272 344 C 272 348.417969 275.582031 352 280 352 Z "/>
<path style=" stroke:none;fill-rule:nonzero;fill:#8D6C9F;fill-opacity:1;" d="M 320 352 C 324.417969 352 328 348.417969 328 344 L 328 328 C 328 323.582031 324.417969 320 320 320 C 315.582031 320 312 323.582031 312 328 L 312 344 C 312 348.417969 315.582031 352 320 352 Z "/>
<path style=" stroke:none;fill-rule:nonzero;fill:#8D6C9F;fill-opacity:1;" d="M 360 320 C 355.582031 320 352 323.582031 352 328 L 352 344 C 352 348.417969 355.582031 352 360 352 C 364.417969 352 368 348.417969 368 344 L 368 328 C 368 323.582031 364.417969 320 360 320 Z "/>
<path style=" stroke:none;fill-rule:nonzero;fill:#8D6C9F;fill-opacity:1;" d="M 400 352 C 404.417969 352 408 348.417969 408 344 L 408 328 C 408 323.582031 404.417969 320 400 320 C 395.582031 320 392 323.582031 392 328 L 392 344 C 392 348.417969 395.582031 352 400 352 Z "/>
<path style=" stroke:none;fill-rule:nonzero;fill:#8D6C9F;fill-opacity:1;" d="M 440 320 C 435.582031 320 432 323.582031 432 328 L 432 344 C 432 348.417969 435.582031 352 440 352 C 444.417969 352 448 348.417969 448 344 L 448 328 C 448 323.582031 444.417969 320 440 320 Z "/>
<path style=" stroke:none;fill-rule:nonzero;fill:#8D6C9F;fill-opacity:1;" d="M 424 448 L 392 448 C 387.582031 448 384 451.582031 384 456 C 384 460.417969 387.582031 464 392 464 L 424 464 C 428.417969 464 432 460.417969 432 456 C 432 451.582031 428.417969 448 424 448 Z "/>
<path style=" stroke:none;fill-rule:nonzero;fill:#8D6C9F;fill-opacity:1;" d="M 360 448 L 88 448 C 83.582031 448 80 451.582031 80 456 C 80 460.417969 83.582031 464 88 464 L 360 464 C 364.417969 464 368 460.417969 368 456 C 368 451.582031 364.417969 448 360 448 Z "/>
<path style=" stroke:none;fill-rule:nonzero;fill:#8D6C9F;fill-opacity:1;" d="M 456 288 L 424 288 C 419.582031 288 416 291.582031 416 296 C 416 300.417969 419.582031 304 424 304 L 456 304 C 460.417969 304 464 300.417969 464 296 C 464 291.582031 460.417969 288 456 288 Z "/>
</g>
</svg>
