<?xml version="1.0" encoding="UTF-8"?>
<svg xmlns="http://www.w3.org/2000/svg" xmlns:xlink="http://www.w3.org/1999/xlink" viewBox="0 0 64 64" version="1.1">
<g id="surface1">
<path style=" stroke:none;fill-rule:nonzero;fill:#CDA1A7;fill-opacity:1;" d="M 9 5 L 55 5 C 56.105469 5 57 5.894531 57 7 L 57 59 C 57 60.105469 56.105469 61 55 61 L 9 61 C 7.894531 61 7 60.105469 7 59 L 7 7 C 7 5.894531 7.894531 5 9 5 Z "/>
<path style=" stroke:none;fill-rule:nonzero;fill:#DEB4BA;fill-opacity:1;" d="M 8 7 C 8 6.449219 8.449219 6 9 6 L 55 6 C 55.550781 6 56 6.449219 56 7 C 56 7.550781 55.550781 8 55 8 L 9 8 C 8.449219 8 8 7.550781 8 7 Z "/>
<path style=" stroke:none;fill-rule:nonzero;fill:#FAEFDE;fill-opacity:1;" d="M 13 55 L 43 55 L 51 47 L 51 11 L 13 11 Z "/>
<path style=" stroke:none;fill-rule:nonzero;fill:#BBDEF9;fill-opacity:1;" d="M 43 47 L 51 47 L 43 55 Z "/>
<path style=" stroke:none;fill-rule:nonzero;fill:#FFF7F0;fill-opacity:1;" d="M 51 35.46875 L 51 14.628906 L 17.570313 54.878906 L 33.878906 54.878906 Z "/>
<path style=" stroke:none;fill-rule:nonzero;fill:#FFF7F0;fill-opacity:1;" d="M 13.398438 53.398438 L 48.5 11 L 44 11 L 12.5 49.601563 Z "/>
<path style=" stroke:none;fill-rule:nonzero;fill:#FFF7F0;fill-opacity:1;" d="M 13 43.421875 L 39.5 11 L 38 11 L 13 41.53125 Z "/>
<path style=" stroke:none;fill-rule:nonzero;fill:#FFFFFF;fill-opacity:1;" d="M 45.5 29 L 46.738281 31.261719 L 49 32.5 L 46.738281 33.738281 L 45.5 36 L 44.261719 33.738281 L 42 32.5 L 44.261719 31.261719 Z "/>
<path style=" stroke:none;fill-rule:nonzero;fill:#F9E3AE;fill-opacity:1;" d="M 42 6 L 32 1 L 22 6 L 21 13 L 43 13 Z "/>
<path style=" stroke:none;fill-rule:nonzero;fill:#FFFFFF;fill-opacity:1;" d="M 25.421875 21 L 26.269531 22.558594 L 27.839844 23.421875 L 26.269531 24.269531 L 25.421875 25.839844 L 24.558594 24.269531 L 23 23.421875 L 24.558594 22.558594 Z "/>
<path style=" stroke:none;fill-rule:nonzero;fill:#FFFFFF;fill-opacity:1;" d="M 22.648438 48 L 23.230469 49.058594 L 24.300781 49.648438 L 23.230469 50.230469 L 22.648438 51.300781 L 22.070313 50.230469 L 21 49.648438 L 22.070313 49.058594 Z "/>
<path style=" stroke:none;fill-rule:nonzero;fill:#8D6C9F;fill-opacity:1;" d="M 55 4 L 40.578125 4 L 37.878906 2 C 34.375 -0.546875 29.625 -0.546875 26.121094 2 L 23.421875 4 L 9 4 C 7.34375 4 6 5.34375 6 7 L 6 59 C 6 60.65625 7.34375 62 9 62 L 55 62 C 56.65625 62 58 60.65625 58 59 L 58 7 C 58 5.34375 56.65625 4 55 4 Z M 50 46 L 44 46 C 42.894531 46 42 46.894531 42 48 L 42 54 L 14 54 L 14 12 L 20.179688 12 C 20.601563 13.195313 21.730469 13.996094 23 14 L 41 14 C 42.269531 13.996094 43.398438 13.195313 43.820313 12 L 50 12 Z M 48.589844 48 L 44 52.589844 L 44 48 Z M 27.289063 3.660156 C 30.09375 1.621094 33.894531 1.621094 36.699219 3.660156 L 40.761719 6.660156 C 41.515625 7.207031 41.972656 8.070313 42 9 L 42 11 C 42 11.550781 41.550781 12 41 12 L 23 12 C 22.449219 12 22 11.550781 22 11 L 22 9 C 22 8.039063 22.460938 7.132813 23.238281 6.570313 Z M 56 59 C 56 59.550781 55.550781 60 55 60 L 9 60 C 8.449219 60 8 59.550781 8 59 L 8 7 C 8 6.449219 8.449219 6 9 6 L 21 6 C 20.351563 6.867188 20 7.917969 20 9 L 20 10 L 14 10 C 12.894531 10 12 10.894531 12 12 L 12 54 C 12 55.105469 12.894531 56 14 56 L 42.171875 56 C 42.964844 56 43.726563 55.683594 44.289063 55.121094 L 51.121094 48.289063 C 51.683594 47.726563 52 46.964844 52 46.171875 L 52 12 C 52 10.894531 51.105469 10 50 10 L 44 10 L 44 9 C 44 7.917969 43.648438 6.867188 43 6 L 55 6 C 55.550781 6 56 6.449219 56 7 Z "/>
<path style=" stroke:none;fill-rule:nonzero;fill:#8D6C9F;fill-opacity:1;" d="M 18 17 C 18 16.449219 17.550781 16 17 16 C 16.449219 16 16 16.449219 16 17 L 16 19 C 16 19.550781 16.449219 20 17 20 C 17.550781 20 18 19.550781 18 19 Z "/>
<path style=" stroke:none;fill-rule:nonzero;fill:#8D6C9F;fill-opacity:1;" d="M 22 16 C 21.449219 16 21 16.449219 21 17 L 21 19 C 21 19.550781 21.449219 20 22 20 C 22.550781 20 23 19.550781 23 19 L 23 17 C 23 16.449219 22.550781 16 22 16 Z "/>
<path style=" stroke:none;fill-rule:nonzero;fill:#8D6C9F;fill-opacity:1;" d="M 27 20 C 27.550781 20 28 19.550781 28 19 L 28 17 C 28 16.449219 27.550781 16 27 16 C 26.449219 16 26 16.449219 26 17 L 26 19 C 26 19.550781 26.449219 20 27 20 Z "/>
<path style=" stroke:none;fill-rule:nonzero;fill:#8D6C9F;fill-opacity:1;" d="M 32 20 C 32.550781 20 33 19.550781 33 19 L 33 17 C 33 16.449219 32.550781 16 32 16 C 31.449219 16 31 16.449219 31 17 L 31 19 C 31 19.550781 31.449219 20 32 20 Z "/>
<path style=" stroke:none;fill-rule:nonzero;fill:#8D6C9F;fill-opacity:1;" d="M 37 20 C 37.550781 20 38 19.550781 38 19 L 38 17 C 38 16.449219 37.550781 16 37 16 C 36.449219 16 36 16.449219 36 17 L 36 19 C 36 19.550781 36.449219 20 37 20 Z "/>
<path style=" stroke:none;fill-rule:nonzero;fill:#8D6C9F;fill-opacity:1;" d="M 42 20 C 42.550781 20 43 19.550781 43 19 L 43 17 C 43 16.449219 42.550781 16 42 16 C 41.449219 16 41 16.449219 41 17 L 41 19 C 41 19.550781 41.449219 20 42 20 Z "/>
<path style=" stroke:none;fill-rule:nonzero;fill:#8D6C9F;fill-opacity:1;" d="M 47 20 C 47.550781 20 48 19.550781 48 19 L 48 17 C 48 16.449219 47.550781 16 47 16 C 46.449219 16 46 16.449219 46 17 L 46 19 C 46 19.550781 46.449219 20 47 20 Z "/>
<path style=" stroke:none;fill-rule:nonzero;fill:#8D6C9F;fill-opacity:1;" d="M 34 6 C 34 7.105469 33.105469 8 32 8 C 30.894531 8 30 7.105469 30 6 C 30 4.894531 30.894531 4 32 4 C 33.105469 4 34 4.894531 34 6 Z "/>
<path style=" stroke:none;fill-rule:nonzero;fill:#8D6C9F;fill-opacity:1;" d="M 27 26 C 26.449219 26 26 26.449219 26 27 C 26 27.550781 26.449219 28 27 28 L 45 28 C 45.550781 28 46 27.550781 46 27 C 46 26.449219 45.550781 26 45 26 Z "/>
<path style=" stroke:none;fill-rule:nonzero;fill:#8D6C9F;fill-opacity:1;" d="M 27 34 L 41 34 C 41.550781 34 42 33.550781 42 33 C 42 32.449219 41.550781 32 41 32 L 27 32 C 26.449219 32 26 32.449219 26 33 C 26 33.550781 26.449219 34 27 34 Z "/>
<path style=" stroke:none;fill-rule:nonzero;fill:#8D6C9F;fill-opacity:1;" d="M 33 44 L 27 44 C 26.449219 44 26 44.449219 26 45 C 26 45.550781 26.449219 46 27 46 L 33 46 C 33.550781 46 34 45.550781 34 45 C 34 44.449219 33.550781 44 33 44 Z "/>
<path style=" stroke:none;fill-rule:nonzero;fill:#8D6C9F;fill-opacity:1;" d="M 43 38 L 27 38 C 26.449219 38 26 38.449219 26 39 C 26 39.550781 26.449219 40 27 40 L 43 40 C 43.550781 40 44 39.550781 44 39 C 44 38.449219 43.550781 38 43 38 Z "/>
<path style=" stroke:none;fill-rule:nonzero;fill:#8D6C9F;fill-opacity:1;" d="M 21.289063 25.289063 L 20 26.589844 L 19.710938 26.300781 C 19.3125 25.960938 18.722656 25.984375 18.351563 26.351563 C 17.984375 26.722656 17.960938 27.3125 18.300781 27.710938 L 19.300781 28.710938 C 19.691406 29.097656 20.320313 29.097656 20.710938 28.710938 L 22.710938 26.710938 C 23.050781 26.3125 23.027344 25.722656 22.65625 25.351563 C 22.289063 24.984375 21.695313 24.960938 21.300781 25.300781 Z "/>
<path style=" stroke:none;fill-rule:nonzero;fill:#8D6C9F;fill-opacity:1;" d="M 21.289063 31.289063 L 20 32.589844 L 19.710938 32.300781 C 19.3125 31.960938 18.722656 31.984375 18.351563 32.351563 C 17.984375 32.722656 17.960938 33.3125 18.300781 33.710938 L 19.300781 34.710938 C 19.691406 35.097656 20.320313 35.097656 20.710938 34.710938 L 22.710938 32.710938 C 23.050781 32.3125 23.027344 31.722656 22.65625 31.351563 C 22.289063 30.984375 21.695313 30.960938 21.300781 31.300781 Z "/>
<path style=" stroke:none;fill-rule:nonzero;fill:#8D6C9F;fill-opacity:1;" d="M 21.289063 37.289063 L 20 38.589844 L 19.710938 38.300781 C 19.3125 37.960938 18.722656 37.984375 18.351563 38.351563 C 17.984375 38.722656 17.960938 39.3125 18.300781 39.710938 L 19.300781 40.710938 C 19.691406 41.097656 20.320313 41.097656 20.710938 40.710938 L 22.710938 38.710938 C 23.050781 38.3125 23.027344 37.722656 22.65625 37.351563 C 22.289063 36.984375 21.695313 36.960938 21.300781 37.300781 Z "/>
<path style=" stroke:none;fill-rule:nonzero;fill:#8D6C9F;fill-opacity:1;" d="M 21.289063 43.289063 L 20 44.589844 L 19.710938 44.300781 C 19.3125 43.960938 18.722656 43.984375 18.351563 44.351563 C 17.984375 44.722656 17.960938 45.3125 18.300781 45.710938 L 19.300781 46.710938 C 19.691406 47.097656 20.320313 47.097656 20.710938 46.710938 L 22.710938 44.710938 C 23.050781 44.3125 23.027344 43.722656 22.65625 43.351563 C 22.289063 42.984375 21.695313 42.960938 21.300781 43.300781 Z "/>
</g>
</svg>
