<?xml version="1.0" encoding="UTF-8"?>
<svg xmlns="http://www.w3.org/2000/svg" xmlns:xlink="http://www.w3.org/1999/xlink" width="24pt" height="24pt" viewBox="0 0 24 24" version="1.1">
<g id="surface1">
<path style=" stroke:none;fill-rule:nonzero;fill:#963852;fill-opacity:1;" d="M 10 2 C 5.59375 2 2 5.59375 2 10 C 2 14.40625 5.59375 18 10 18 C 12.023438 18 13.871094 17.238281 15.28125 15.988281 L 16 16.707031 L 16 18 L 20 22 L 22 20 L 18 16 L 16.707031 16 L 15.988281 15.28125 C 17.238281 13.871094 18 12.023438 18 10 C 18 5.59375 14.40625 2 10 2 Z M 10 4 C 13.324219 4 16 6.675781 16 10 C 16 13.324219 13.324219 16 10 16 C 6.675781 16 4 13.324219 4 10 C 4 6.675781 6.675781 4 10 4 Z M 7 8 C 6.449219 8 6 8.449219 6 9 C 6 9.550781 6.449219 10 7 10 C 7.550781 10 8 9.550781 8 9 C 8 8.449219 7.550781 8 7 8 Z M 13 8 C 12.449219 8 12 8.449219 12 9 C 12 9.550781 12.449219 10 13 10 C 13.550781 10 14 9.550781 14 9 C 14 8.449219 13.550781 8 13 8 Z M 10 10.996094 C 8.777344 10.996094 7.554688 11.363281 6.519531 12.105469 L 7.679688 13.734375 C 9.042969 12.761719 10.957031 12.761719 12.316406 13.734375 L 13.480469 12.105469 C 12.445313 11.363281 11.222656 10.996094 10 10.996094 Z "/>
</g>
</svg>
