<?xml version="1.0" standalone="no"?><!-- Generator: Gravit.io --><svg xmlns="http://www.w3.org/2000/svg" xmlns:xlink="http://www.w3.org/1999/xlink" style="isolation:isolate" viewBox="0 0 23.698 23.698"><path d=" M 10.133 0.284 C 4.695 0.284 0.266 4.714 0.266 10.151 C 0.266 15.593 4.695 20.022 10.133 20.022 C 12.282 20.022 14.27 19.327 15.892 18.155 Q 15.922 18.128 20.485 22.734 C 21.262 23.519 22.402 23.642 23.031 23.01 L 23.031 23.01 C 23.659 22.378 23.536 21.231 22.756 20.45 Q 18.187 15.878 18.17 15.865 C 19.321 14.251 20.004 12.28 20.004 10.151 C 20.004 4.714 15.574 0.284 10.133 0.284 Z  M 10.133 3.018 C 14.082 3.018 17.266 6.202 17.266 10.151 C 17.266 14.1 14.082 17.284 10.133 17.284 C 6.183 17.284 3 14.1 3 10.151 C 3 6.202 6.183 3.018 10.133 3.018 Z " fill="rgb(150,56,82)"/></svg>