<?xml version="1.0" encoding="UTF-8"?>
<svg xmlns="http://www.w3.org/2000/svg" xmlns:xlink="http://www.w3.org/1999/xlink" viewBox="0 0 24 24" version="1.1">
<g id="surface1">
<path style=" stroke:none;fill-rule:nonzero;fill:#963852;fill-opacity:1;" d="M 3.445313 2.03125 L 2.03125 3.445313 L 3.4375 4.851563 C 2.570313 5.824219 2.039063 7.097656 2.039063 8.5 C 2.039063 12.671875 6.949219 16.714844 8.320313 17.988281 C 9.894531 19.460938 12.035156 21.347656 12.035156 21.347656 C 12.035156 21.347656 14.179688 19.460938 15.753906 17.988281 C 15.871094 17.882813 16.019531 17.746094 16.183594 17.597656 L 19.03125 20.449219 L 20.449219 19.03125 Z M 7.539063 3 C 7.449219 3 7.363281 3.007813 7.277344 3.015625 L 12.144531 7.882813 L 12.160156 7.867188 L 17.625 13.332031 C 17.621094 13.339844 17.617188 13.34375 17.609375 13.347656 L 19.03125 14.769531 C 20.578125 13 22.035156 10.769531 22.035156 8.5 C 22.035156 5.460938 19.574219 3 16.535156 3 C 13.640625 3 12.035156 5.089844 12.035156 5.089844 C 12.035156 5.089844 10.433594 3 7.539063 3 Z "/>
</g>
</svg>
